<svg width="488" height="119" viewBox="0 0 488 119" fill="none" xmlns="http://www.w3.org/2000/svg">
<path d="M174 71.74V83.23H194.76V88.6H174V101.47H196.76V107H167.83V66.25H196.83V71.74H174Z" fill="#3C3C3C"/>
<path d="M226.61 87.18V107H220.89V88C220.89 83.76 218.66 81.82 214.66 81.82C211.17 81.82 207.22 84.39 207.22 90.34V107H201.51V77.5H207V81.9C207.989 80.3365 209.357 79.0494 210.979 78.1592C212.6 77.269 214.421 76.8047 216.27 76.81C222.66 76.77 226.61 80.43 226.61 87.18Z" fill="#3C3C3C"/>
<path d="M260.45 77.46V105.87C260.45 113.59 255.82 118.87 246.38 118.87C238.38 118.87 233.92 114.92 233.38 109.04H239.1C239.55 112.52 242.1 114.24 246.47 114.24C251.85 114.24 254.76 111.44 254.76 106.01V102.75C253.677 104.234 252.244 105.428 250.588 106.225C248.933 107.022 247.106 107.398 245.27 107.32C237.1 107.32 231.72 101.26 231.72 92.05C231.72 82.84 237.04 76.79 245.21 76.79C247.117 76.716 249.012 77.1222 250.721 77.9714C252.43 78.8206 253.898 80.0855 254.99 81.65V77.48L260.45 77.46ZM254.9 92C254.9 85.43 251.53 81.66 246.27 81.66C241.01 81.66 237.64 85.66 237.64 92C237.64 98.34 241.01 102.35 246.27 102.35C251.53 102.35 254.9 98.61 254.9 92Z" fill="#3C3C3C"/>
<path d="M293.89 102.56V107C292.961 107.114 292.026 107.17 291.09 107.17C287.43 107.17 285.77 105.85 285.37 103C283.37 106.08 280.06 107.68 275.77 107.68C269.42 107.68 265.25 104.6 265.25 98.94C265.25 94.19 268.11 90.59 276.34 89.79L280.69 89.33C283.54 88.99 285.09 88.02 285.09 85.61C285.09 82.87 283.66 81.38 279.03 81.38C274.4 81.38 272.45 82.7 272.17 86.7H266.51C266.85 80.7 270.17 76.81 279.03 76.81C287.49 76.81 290.69 80.35 290.69 85.5V101.11C290.69 102.02 291.15 102.6 292.29 102.6L293.89 102.56ZM285.09 95.29V92.21C284.006 92.9444 282.738 93.3601 281.43 93.41L277.31 93.86C272.57 94.44 271.14 96.09 271.14 98.72C271.14 101.35 272.91 103.18 276.63 103.18C280.8 103.18 285.09 100.84 285.09 95.29Z" fill="#3C3C3C"/>
<path d="M324.48 77.46V105.87C324.48 113.59 319.85 118.87 310.41 118.87C302.41 118.87 297.95 114.92 297.41 109.04H303.13C303.58 112.52 306.13 114.24 310.5 114.24C315.88 114.24 318.79 111.44 318.79 106.01V102.75C317.707 104.234 316.274 105.428 314.618 106.225C312.963 107.022 311.136 107.398 309.3 107.32C301.12 107.32 295.75 101.26 295.75 92.05C295.75 82.84 301.07 76.79 309.24 76.79C311.147 76.7169 313.041 77.1235 314.75 77.9727C316.459 78.8218 317.927 80.0862 319.02 81.65V77.48L324.48 77.46ZM318.93 92C318.93 85.43 315.56 81.66 310.3 81.66C305.04 81.66 301.67 85.66 301.67 92C301.67 98.34 305.04 102.35 310.3 102.35C315.56 102.35 318.93 98.61 318.93 92Z" fill="#3C3C3C"/>
<path d="M357.58 94.09H335.34C335.85 100.09 339.06 102.84 343.8 102.84C347.63 102.84 350.09 100.9 351.12 97.92H356.89C355.41 103.64 350.78 107.64 343.69 107.64C335.34 107.64 329.56 101.7 329.56 92.21C329.56 82.94 335.17 76.77 343.56 76.77C352.48 76.77 357.56 83.57 357.56 92.44L357.58 94.09ZM335.4 89.58H351.69C351.18 85 348.37 81.58 343.57 81.58C339.28 81.57 336.14 84.15 335.4 89.58Z" fill="#3C3C3C"/>
<path d="M405.09 87.18V107H399.31V88C399.31 83.77 397.31 81.88 393.65 81.88C390.17 81.88 386.74 84.45 386.74 90.88V107H381V88C381 83.77 378.94 81.88 375.28 81.88C371.91 81.88 368.36 84.45 368.36 90.88V107H362.65V77.5H368.13V81.9C368.941 80.3472 370.167 79.0495 371.671 78.151C373.175 77.2525 374.898 76.7883 376.65 76.81C381.28 76.81 384.31 79.04 385.74 82.36C386.609 80.6847 387.923 79.2808 389.537 78.3019C391.15 77.3231 393.002 76.8069 394.89 76.81C401.6 76.77 405.09 81.11 405.09 87.18Z" fill="#3C3C3C"/>
<path d="M438.13 94.09H415.89C416.41 100.09 419.61 102.84 424.35 102.84C428.18 102.84 430.64 100.9 431.67 97.92H437.45C435.96 103.64 431.33 107.64 424.24 107.64C415.89 107.64 410.12 101.7 410.12 92.21C410.12 82.94 415.72 76.77 424.12 76.77C433.04 76.77 438.12 83.57 438.12 92.44L438.13 94.09ZM416 89.58H432.29C431.78 85 428.98 81.58 424.17 81.58C419.83 81.57 416.69 84.15 416 89.58Z" fill="#3C3C3C"/>
<path d="M468.32 87.18V107H462.6V88C462.6 83.76 460.37 81.82 456.37 81.82C452.88 81.82 448.93 84.39 448.93 90.34V107H443.22V77.5H448.71V81.9C449.695 80.336 451.062 79.0483 452.682 78.1579C454.302 77.2675 456.122 76.8036 457.97 76.81C464.37 76.77 468.32 80.43 468.32 87.18Z" fill="#3C3C3C"/>
<path d="M481.81 82.14V99.87C481.81 101.58 482.66 102.38 485.18 102.38H487.75V107C486.5 107.11 485.29 107.17 484.26 107.17C478.95 107.17 476.09 105.34 476.09 100.42V82.14H471.34V77.46H476.09V69H481.81V77.47H487.75V82.15L481.81 82.14Z" fill="#3C3C3C"/>
<path d="M203.82 49.14V25.65L193.75 49.14H188.15L178.25 25.65V49.14H167.83V8.45001H181.77L191.34 31.43L201.36 8.45001H214.23V49.14H203.82Z" fill="#FF6600"/>
<path d="M222.24 49.14V8.45001H231.14C231.555 8.48395 231.942 8.66856 232.23 8.96892C232.517 9.26928 232.685 9.66456 232.7 10.08V49.14H222.24Z" fill="#FF6600"/>
<path d="M261.59 25.71H274.81C275.043 25.7157 275.272 25.7695 275.483 25.8679C275.694 25.9663 275.882 26.1072 276.036 26.2818C276.19 26.4565 276.307 26.661 276.378 26.8827C276.449 27.1044 276.474 27.3384 276.45 27.57V48.57C271.883 49.4554 267.242 49.9041 262.59 49.91C247.41 49.91 239.41 42.68 239.41 28.72C239.41 16.27 247.41 7.65002 260.75 7.65002C266.62 7.65002 271.75 9.22002 275.09 11.45L270.98 18.45C267.995 17.1357 264.789 16.3961 261.53 16.27C253.86 16.27 250.28 21.36 250.28 28.72C250.28 36.59 254.43 41.45 262.08 41.45C263.598 41.4654 265.115 41.3752 266.62 41.18V34H261.62L261.59 25.71Z" fill="#FF6600"/>
<path d="M299.66 16.29H294.54V26.5H299.66C302.72 26.5 305.12 24.87 305.12 21C305.12 17.13 302.72 16.29 299.66 16.29ZM307.37 49.14L302.54 37.94C301.54 35.66 300.87 34.53 298.78 34.53H294.54V49.14H284.32V10.08C284.362 9.66865 284.542 9.28359 284.831 8.98759C285.12 8.6916 285.5 8.50211 285.91 8.45001H300.35C308.19 8.45001 314.92 10.08 314.92 20.21C314.92 24.75 312.4 29.39 307.7 30.33C310.04 31.13 312.4 34.14 313.7 37.4L318.35 49.14H307.37Z" fill="#FF6600"/>
<path d="M340.94 16.29C335.45 16.29 331.55 20.22 331.55 28.74C331.55 37.26 335.45 41.31 340.94 41.31C345.65 41.31 349.5 37.4 349.5 28.74C349.5 20.08 345.65 16.29 340.94 16.29V16.29ZM340.94 49.93C327.62 49.93 320.57 40.52 320.57 28.74C320.57 16.96 327.62 7.66998 340.94 7.66998C353.42 7.66998 360.48 17.08 360.48 28.74C360.48 40.4 353.42 49.93 340.94 49.93Z" fill="#FF6600"/>
<path d="M380.51 49.93C373.63 49.93 367.24 47.46 364.39 45.51L369 37.28C371.59 38.85 376.62 41.28 381.26 41.28C383.89 41.28 387.21 40.78 387.21 37.86C387.21 35.12 383.5 34.28 378.64 32.86C372.77 31.18 365.93 28.86 365.93 20.94C365.93 12.43 373.49 7.66998 383.33 7.66998C389.83 7.66998 394.87 9.96999 397.43 12.43L391.79 18.86C388.99 17.19 386.14 15.86 382.94 15.86C379.08 15.86 376.94 17.33 376.94 19.46C376.94 21.59 379.74 22.64 383.26 23.7C389.48 25.62 397.98 27.59 397.98 35.7C397.98 44.09 391.27 49.86 380.52 49.86" fill="#FF6600"/>
<path d="M133.86 9.00002C131.031 6.17109 127.673 3.92704 123.977 2.39601C120.282 0.864979 116.32 0.0769653 112.32 0.0769653C108.32 0.0769653 104.358 0.864979 100.662 2.39601C96.9665 3.92704 93.6085 6.17109 90.7799 9.00002L76.4399 23.35L97.9999 44.89C102.174 48.9578 105.375 53.9165 107.363 59.3955C109.351 64.8745 110.075 70.7319 109.48 76.53L133.89 52.12C139.604 46.4041 142.815 38.6525 142.815 30.57C142.815 22.4875 139.604 14.7359 133.89 9.02002" fill="#C4390A"/>
<path d="M91.9401 51.15L52.4101 11.61C46.6974 5.89593 38.9487 2.68526 30.8686 2.68433C22.7886 2.68339 15.0392 5.89226 9.32511 11.605C3.61102 17.3178 0.400352 25.0665 0.399414 33.1465C0.398477 41.2265 3.60735 48.9759 9.32011 54.69V54.69L70.4001 115.78L91.9401 94.23C94.769 91.4015 97.0131 88.0434 98.5441 84.3476C100.075 80.6517 100.863 76.6905 100.863 72.69C100.863 68.6896 100.075 64.7283 98.5441 61.0325C97.0131 57.3366 94.769 53.9786 91.9401 51.15" fill="#FF6600"/>
</svg>
