<?xml version="1.0" encoding="UTF-8"?>
<svg width="170px" height="170px" viewBox="0 0 170 170" version="1.1" xmlns="http://www.w3.org/2000/svg" xmlns:xlink="http://www.w3.org/1999/xlink">
    <!-- Generator: Sketch 64 (93537) - https://sketch.com -->
    <title>Group 7</title>
    <desc>Created with Sketch.</desc>
    <defs>
        <circle id="path-1" cx="75" cy="75" r="75"></circle>
        <filter x="-10.7%" y="-9.3%" width="121.3%" height="121.3%" filterUnits="objectBoundingBox" id="filter-2">
            <feOffset dx="0" dy="2" in="SourceAlpha" result="shadowOffsetOuter1"></feOffset>
            <feGaussianBlur stdDeviation="5" in="shadowOffsetOuter1" result="shadowBlurOuter1"></feGaussianBlur>
            <feColorMatrix values="0 0 0 0 0.32591712   0 0 0 0 0.32591712   0 0 0 0 0.32591712  0 0 0 0.2 0" type="matrix" in="shadowBlurOuter1"></feColorMatrix>
        </filter>
    </defs>
    <g id="Mobile" stroke="none" stroke-width="1" fill="none" fill-rule="evenodd">
        <g id="01_Swipe" transform="translate(-75.000000, -276.000000)">
            <g id="Group-7" transform="translate(85.000000, 284.000000)">
                <g id="Group" transform="translate(27.000000, 29.000000)">
                    <circle id="Oval-2-Copy-7" fill="#FF6600" cx="18" cy="18" r="18"></circle>
                    <path d="M19.4117647,12 L19.411,16.588 L24,16.5882353 L24,19.4117647 L19.411,19.411 L19.4117647,24 L16.5882353,24 L16.588,19.411 L12,19.4117647 L12,16.5882353 L16.588,16.588 L16.5882353,12 L19.4117647,12 Z" id="Combined-Shape-Copy-3" fill="#FFFFFF"></path>
                </g>
                <g id="Oval-Copy">
                    <use fill="black" fill-opacity="1" filter="url(#filter-2)" xlink:href="#path-1"></use>
                    <use fill="#FF6600" fill-rule="evenodd" xlink:href="#path-1"></use>
                </g>
                <path d="M60.7470588,56.3882353 L59.5117647,57.3901961 C58.9215686,57.8705882 58.8392157,58.7352941 59.3058824,59.3254902 C59.5803922,59.654902 59.9784314,59.8333333 60.3764706,59.8333333 C60.6784314,59.8333333 60.9803922,59.7372549 61.2411765,59.5313725 L65.4686275,56.1 C65.5098039,56.072549 65.5372549,56.0313725 65.5784314,56.0039216 C65.5921569,55.9901961 65.5921569,55.9901961 65.6058824,55.9764706 C65.6333333,55.9490196 65.6607843,55.9215686 65.6745098,55.8941176 C65.6882353,55.8803922 65.6882353,55.8666667 65.7019608,55.8529412 C65.7156863,55.8254902 65.7431373,55.7980392 65.7568627,55.7705882 C65.7705882,55.7568627 65.7705882,55.7431373 65.7843137,55.7294118 C65.7980392,55.7019608 65.8117647,55.6745098 65.8254902,55.6470588 C65.8392157,55.6333333 65.8392157,55.6196078 65.8392157,55.6058824 C65.8529412,55.5784314 65.8666667,55.5372549 65.8803922,55.5098039 C65.8803922,55.4960784 65.8941176,55.4823529 65.8941176,55.4686275 C65.9078431,55.4411765 65.9215686,55.4 65.9215686,55.372549 C65.9215686,55.3588235 65.9352941,55.345098 65.9352941,55.3313725 C65.9490196,55.2901961 65.9490196,55.2627451 65.9490196,55.2215686 C65.9490196,55.2078431 65.9490196,55.1941176 65.9490196,55.1803922 C65.9490196,55.1254902 65.9627451,55.0843137 65.9627451,55.0294118 C65.9627451,54.9745098 65.9627451,54.9333333 65.9490196,54.8784314 C65.9490196,54.8647059 65.9490196,54.8509804 65.9490196,54.8372549 C65.9490196,54.7960784 65.9352941,54.7686275 65.9352941,54.727451 C65.9352941,54.7137255 65.9352941,54.7 65.9215686,54.6862745 C65.9078431,54.645098 65.9078431,54.6176471 65.8941176,54.5901961 C65.8941176,54.5764706 65.8803922,54.5627451 65.8803922,54.5490196 C65.8666667,54.5215686 65.8529412,54.4803922 65.8392157,54.4529412 C65.8392157,54.4392157 65.8254902,54.4254902 65.8254902,54.4117647 C65.8117647,54.3843137 65.7980392,54.3568627 65.7843137,54.3294118 C65.7705882,54.3156863 65.7705882,54.3019608 65.7568627,54.2882353 C65.7431373,54.2607843 65.7156863,54.2333333 65.7019608,54.2058824 C65.6882353,54.1921569 65.6882353,54.1784314 65.6745098,54.1647059 C65.6470588,54.1372549 65.6333333,54.1098039 65.6058824,54.0823529 C65.5921569,54.0686275 65.5921569,54.0686275 65.5784314,54.054902 C65.5509804,54.027451 65.5098039,53.9862745 65.4686275,53.9588235 L61.2411765,50.527451 C60.6509804,50.0470588 59.7862745,50.1431373 59.3058824,50.7333333 C58.8254902,51.3235294 58.9215686,52.1882353 59.5117647,52.6686275 L60.7470588,53.6705882 L41.2156863,53.6156863 L42.4509804,52.6137255 C43.0411765,52.1333333 43.1235294,51.2686275 42.6568627,50.6784314 C42.1764706,50.0882353 41.3117647,50.0058824 40.7215686,50.472549 L36.4941176,53.9039216 C36.4529412,53.9313725 36.4254902,53.972549 36.3843137,54 C36.3705882,54.0137255 36.3705882,54.0137255 36.3568627,54.027451 C36.3294118,54.054902 36.3019608,54.0823529 36.2882353,54.1098039 C36.2745098,54.1235294 36.2745098,54.1372549 36.2607843,54.1509804 C36.2470588,54.1784314 36.2196078,54.2058824 36.2058824,54.2333333 C36.1921569,54.2470588 36.1921569,54.2607843 36.1784314,54.2745098 C36.1647059,54.3019608 36.1509804,54.3294118 36.1372549,54.3568627 C36.1235294,54.3705882 36.1235294,54.3843137 36.1235294,54.3980392 C36.1098039,54.4254902 36.0960784,54.4666667 36.0823529,54.4941176 C36.0823529,54.5078431 36.0686275,54.5215686 36.0686275,54.5352941 C36.054902,54.5627451 36.0411765,54.6039216 36.0411765,54.6313725 C36.0411765,54.645098 36.027451,54.6588235 36.027451,54.672549 C36.0137255,54.7137255 36.0137255,54.7411765 36.0137255,54.7823529 C36.0137255,54.7960784 36.0137255,54.8098039 36.0137255,54.8235294 C36.0137255,54.8784314 36,54.9196078 36,54.9745098 C36,55.0294118 36,55.0705882 36.0137255,55.1254902 C36.0137255,55.1392157 36.0137255,55.1529412 36.0137255,55.1666667 C36.0137255,55.2078431 36.027451,55.2352941 36.027451,55.2764706 C36.027451,55.2901961 36.027451,55.3039216 36.0411765,55.3176471 C36.054902,55.3588235 36.054902,55.3862745 36.0686275,55.4137255 C36.0686275,55.427451 36.0823529,55.4411765 36.0823529,55.454902 C36.0960784,55.4823529 36.1098039,55.5235294 36.1235294,55.5509804 C36.1235294,55.5647059 36.1372549,55.5784314 36.1509804,55.5921569 C36.1647059,55.6196078 36.1784314,55.6470588 36.1921569,55.6745098 C36.2058824,55.6882353 36.2058824,55.7019608 36.2196078,55.7156863 C36.2333333,55.7431373 36.2607843,55.7705882 36.2745098,55.7980392 C36.2882353,55.8117647 36.2882353,55.8254902 36.3019608,55.8392157 C36.3294118,55.8666667 36.3431373,55.8941176 36.3705882,55.9215686 C36.3843137,55.9352941 36.3843137,55.9352941 36.3980392,55.9490196 C36.4254902,55.9764706 36.4666667,56.0176471 36.5078431,56.045098 L40.7352941,59.4764706 C40.9960784,59.6823529 41.2980392,59.7784314 41.6,59.7784314 C41.9980392,59.7784314 42.3960784,59.6 42.6705882,59.2705882 C43.1509804,58.6803922 43.054902,57.8156863 42.4647059,57.3352941 L41.2294118,56.3333333 L60.7470588,56.3882353 Z" id="Path" stroke="#FFFFFF" fill="#FFFFFF" fill-rule="nonzero"></path>
                <path d="M103.254902,107.927451 C103.241176,107.913725 102.294118,106.280392 101.429412,104.413725 C99.8647059,101.023529 100.098039,100.131373 100.098039,100.131373 C100.441176,99.2803922 101.25098,97.0568627 101.978431,94.7509804 C102.939216,91.6901961 103.433333,89.4941176 103.447059,88.2313725 C103.447059,88.2176471 103.447059,88.2176471 103.447059,88.2039216 C103.447059,87.3254902 103.447059,86.7352941 103.447059,86.6392157 L103.447059,75.0960784 C103.447059,72.7352941 101.52549,70.8137255 99.1647059,70.8137255 C98.6156863,70.8137255 98.0941176,70.9098039 97.627451,71.1019608 L97.627451,70.9784314 C97.627451,67.8901961 95.1156863,65.3921569 92.0274479,65.3784314 C92.0274479,65.3784314 92.0274479,65.3784314 92.0274479,65.3784314 C90.9843137,65.3784314 90.0098039,65.6666667 89.172549,66.1607843 L89.172549,65.8588235 C89.172549,62.7705882 86.6607843,60.2588235 83.572549,60.2588235 C83.572549,60.2588235 83.572549,60.2588235 83.572549,60.2588235 C82.5294118,60.2588235 81.554902,60.5333333 80.7176471,61.027451 L80.7176471,45.6 C80.7176471,42.5117647 78.2058824,40 75.1176471,40 C75.1176471,40 75.1176471,40 75.1176471,40 C73.6215686,40 72.2078431,40.5764706 71.1509804,41.6333333 C70.0941176,42.6901961 69.5176471,44.0901961 69.5039216,45.6 L69.5039216,78.527451 C68.2960784,76.5647059 66.772549,74.3137255 65.2078431,72.5156863 C63.3,70.3333333 60.6784314,69.7294118 57.8235294,70.8411765 C55.9568627,71.5823529 55.0509804,73.6960784 55.7784314,75.5490196 C55.8470588,75.7411765 55.9431373,75.9196078 56.0529412,76.0980392 C57.0137255,77.6901961 58.2352941,80.3941176 59.5392157,83.2490196 C62.6823529,90.1803922 66.2509804,98.0313725 70.1764706,100.501961 C73.1411765,102.368627 79.6058824,109.464706 79.6745098,109.547059 C79.9490196,109.84902 80.3196078,110 80.6901961,110 C81.0196078,110 81.3490196,109.876471 81.6098039,109.643137 C82.172549,109.135294 82.2137255,108.270588 81.7058824,107.707843 C81.4313725,107.405882 74.9117647,100.254902 71.6313725,98.1960784 C68.3921569,96.1647059 64.7137255,88.0529412 62.0372549,82.1235294 C60.6509804,79.0627451 59.4431373,76.4137255 58.4,74.6843137 C58.372549,74.6431373 58.345098,74.6019608 58.3313725,74.5470588 C58.1529412,74.0941176 58.372549,73.572549 58.8117647,73.3941176 C60.5823529,72.7078431 61.9823529,73.0098039 63.1215686,74.3137255 C66.4019608,78.0882353 69.6,84.2784314 69.6411765,84.3333333 C69.9294118,84.8960784 70.5745098,85.1843137 71.1784314,85.0333333 C71.7960784,84.8823529 72.2215686,84.3333333 72.2215686,83.7019608 L72.2215686,45.6 C72.2215686,44.0215686 73.4980392,42.745098 75.0764706,42.745098 C75.0764706,42.745098 75.0764706,42.745098 75.0764706,42.745098 C76.654902,42.745098 77.9313725,44.0215686 77.9313725,45.6 L77.9313725,65.6529412 C77.9313725,65.6666667 77.9313725,65.6941176 77.9313725,65.7078431 L77.9313725,69.3176471 C77.9313725,70.072549 78.5490196,70.6901961 79.3039216,70.6901961 C80.0588235,70.6901961 80.6764706,70.072549 80.6764706,69.3176471 L80.6764706,65.7901961 C80.6764706,65.7764706 80.6764706,65.7764706 80.6764706,65.7627451 C80.7313725,64.2254902 81.9803922,63.0176471 83.5313725,63.0176471 C85.1098039,63.0176471 86.3862745,64.2941176 86.3862745,65.872549 L86.3862745,70.9921569 C86.3862745,71.0058824 86.3862745,71.0058824 86.3862745,71.0196078 C86.3862745,71.0196078 86.3862745,71.0196078 86.3862745,71.0196078 C86.4,71.7607843 87.0176471,72.3647059 87.7588235,72.3647059 C88.5137255,72.3647059 89.1313725,71.7470588 89.1313725,70.9921569 L89.1313725,70.9921569 C89.1313725,69.4137255 90.4078431,68.1372549 91.9862745,68.1372549 C91.9862745,68.1372549 91.9862745,68.1372549 91.9862745,68.1372549 C93.5509804,68.1372549 94.8411765,69.4137255 94.8411765,70.9921569 L94.8411765,75.1098039 C94.8411765,75.8647059 95.4588235,76.4823529 96.2137255,76.4823529 C96.9686275,76.4823529 97.5862745,75.8647059 97.5862745,75.1098039 C97.5862745,74.2588235 98.272549,73.572549 99.1235294,73.572549 C99.9745098,73.572549 100.660784,74.2588235 100.660784,75.1098039 L100.660784,86.6529412 L100.660784,88.2313725 C100.660784,88.2313725 100.660784,88.245098 100.660784,88.245098 C100.633333,90.4137255 98.3960784,96.9058824 97.5176471,99.1294118 C97.0098039,100.405882 97.4215686,102.368627 98.8627451,105.484314 C99.7960784,107.515686 100.811765,109.258824 100.866667,109.327451 C101.127451,109.766667 101.580392,110 102.047059,110 C102.280392,110 102.527448,109.945098 102.747059,109.807843 C103.419608,109.423529 103.639216,108.586275 103.254902,107.927451 Z" id="Path" stroke="#FFFFFF" fill="#FFFFFF" fill-rule="nonzero"></path>
            </g>
        </g>
    </g>
</svg>